<svg xmlns="http://www.w3.org/2000/svg" viewBox="0 0 613.23 150.85"><defs><style>.cls-1,.cls-3{fill:#fff;}.cls-1,.cls-2{stroke:#fff;stroke-miterlimit:10;}.cls-2{fill:none;}</style></defs><title>signature</title><g id="lisa"><path class="cls-1" d="M567.58,225.61s-5.25,7.17-6.25,9-9.83,9.92-9.83,9.92-10.25,8.5-10.25,8.83-4.67,4.17-3.33,6.42,5.92,0,5.92,0l7.42-5.92s4.42-3.5,5.42-3.75c0,0-.92,5.33.92,6.58a5,5,0,0,0,2.58,2c1.42.25,7.5-4.83,9.42-7.83,0,0,.58,2,7.67,1s9.92-.25,9.92-.25.25,1.17-11.67,5.25c0,0-7.92,2.58,2.75,4.58,0,0,10.08.33,17.92-1.58s4.92-2.17,4.92-2.17,3.25-1.08,6.83,3.08c0,0-4.75,7.92,1.42,10.92,0,0,2.08,0,.42-1.58a4.62,4.62,0,0,1-.67-6.33c1.67-2.25,1.42-3.33,0-4.5s-7.42-3.33-7.67-3.08-5.17-4.83-6.58-4.42,1.33-3.12,1.33-3.12,1.92,1.79,1.75-1.21-3.33-4-3.33-1.83-2.08,4.58-2.08,4.58-1.25.5-10.5-.17c0,0-10.33,1.17-10.92.25s.75-2.33,1.83-2.25.25-1.42-.62-1.67-1.29-1-2.83,1.13a32.27,32.27,0,0,1-8.92,9.42s-3-1.83-2.25-3.92-.37-2.37.63-3,2.25-.42.63-2.83-2.62,1-2.62,1-12.75,9.46-15.25,10.21-2.33.08-.71-1.83,18-16.08,20.71-18.87,7.13-9.21,7-10S568.88,225.28,567.58,225.61Z" transform="translate(-128.88 -121.35)"/><path class="cls-2" d="M595.08,252.94a4.16,4.16,0,0,1,3.21,2.17S595.39,255.2,595.08,252.94Z" transform="translate(-128.88 -121.35)"/><path class="cls-2" d="M592.25,251.76s3.58,4.5,5,4.63-2,1.71-3.75,2-8.42,1.88-14.33,1.17-3.17-1.42-.62-2.42,9.25-3.92,10-5.08S592.25,251.76,592.25,251.76Z" transform="translate(-128.88 -121.35)"/></g><g id="Calque_2" data-name="Calque 2"><path class="cls-1" d="M645.54,245.31s.33-2.29,1.17-3,5.17-7,5.54-8.37-3-5.25-5.62-4.79-3.54-1-11,6.46,4,16.63,5.63,17.13a45.11,45.11,0,0,1,5.29,2.58s-1.33,2.12-6,4a7.63,7.63,0,0,1-3.46.79c-2.42.13.88,2.92,3.63,2.38s4.29-1.71,6.13-1.54,4.25-1.79,4.25-1.79a3.64,3.64,0,0,0,1.79-1.71,11.52,11.52,0,0,0,6.54,2.17c3.71,0,7-2,9.67-4.71,0,0,2.69,8.31,4.35,8a.53.53,0,0,0,.19-.08c1.63-1.08.33-4.08,1.67-4.83s2-4.29,4.79-4.67c0,0,4,6,5.71,6.08a11.8,11.8,0,0,0,3.83-.75l2.88-.37s3,5,4.92,4.83a43.62,43.62,0,0,0,6.71-1s3.56-.37,4.38-2.12c.67-2.83,0-6.29.63-7.25,0,0-.37-2.37,7,5a19.58,19.58,0,0,1-.5,3.46c-.37,1.25-.62,2.25.79,3.13s2.08-1.71,2-2.87,3.21-7.71,3.21-7.71.21-1.25,9.17-2.25,9.21-.33,9.21-.33,3.79,0-.58-2.46c0,0-3.17-1-12.08.42,0,0-3.12.63-4.21,0s-2.54,1.54-2.92,2.92a30.67,30.67,0,0,1-2,4.37s-.87,1.58-1.62-.25-8.42-6.33-8.42-6.33-1.29.08-1.46,3.67,0,6.33-1,6.58a54.15,54.15,0,0,1-7.25,1.13,11.45,11.45,0,0,1-3.54-1.75s-1-1.35,1.29-2.21,1.92-1.84,3-2.25a4.77,4.77,0,0,0,2.17.25c.65-.25,4.42-2.25,4.79-2.83s.83-1.37-.54-2.87c0,0-.25-.87-4.17,2.83a23.79,23.79,0,0,1-4.25.75c-1.42,0-5.75,3.71-5.75,3.71a9.72,9.72,0,0,1-3.71.71c-2.46.08-4.83-.46-4.83-2.17s-1.79-7-3.79-4.37c0,0-3.54,2-6.21,7.46,0,0-.58,1.67-1.25-2.08s-1.08-6.67-3.42-3.54-1.5,3.83-11.71,5c0,0-4.08-.87-3.92-2.5s6.42-4.75,6.42-4.75l2.92-1.71s1.92-1.83-1.83-5-10.87,4.17-10.87,4.17-1.67,1.54.17,4.83c1.29,2.31-2.07,1.9-2.07,1.9a7.58,7.58,0,0,0-1.14-.53c-.25-.46-4.83-1.42-9.21-6.29S638.25,236,638.25,236s3.46-4.46,8.21-4.79,3.46,2.58,3.17,3.58-4.46,6-4.83,6.71S643.25,244.35,645.54,245.31Z" transform="translate(-128.88 -121.35)"/><path class="cls-3" d="M656.83,245.56c-.5,0-4.08.33-5.12,2.54s-1.08,3.79-.33,5.08c0,0,7.63-4.79,8.63-6.12S657.33,245.56,656.83,245.56Z" transform="translate(-128.88 -121.35)"/></g><g id="Calque_4" data-name="Calque 4"><path class="cls-3" d="M162.75,124.51c-.73,1.71-1.55,3.38-2.43,5q-.66,1.23-1.35,2.44a7.34,7.34,0,0,1-.79,1.14l-.83,1.11a104.47,104.47,0,0,1-7.11,8.56,61.44,61.44,0,0,1-8.29,7.53,26.89,26.89,0,0,1-10.26,4.93l-.28.06-.23-.09a4.11,4.11,0,0,1-1.71-1.13c-.12-.16-.24-.33-.34-.51a2.26,2.26,0,0,1-.25-1.3,3.88,3.88,0,0,1,.14-.59,4.09,4.09,0,0,1,.5-.94c.2-.23.4-.47.61-.7a11.18,11.18,0,0,1,1.32-1,27.88,27.88,0,0,1,5.68-2.86c.51-.16,1-.34,1.53-.49l1.59-.37a10.35,10.35,0,0,1,3.28.16,7.58,7.58,0,0,1,5.21,3.44,7.34,7.34,0,0,0-5.36-2,15,15,0,0,0-2.8.38c-.47.06-.93.18-1.4.28s-.92.29-1.38.44a26.1,26.1,0,0,0-5.21,2.62,4.39,4.39,0,0,0-1.68,1.69c-.08.24-.07.25.08.46a2.26,2.26,0,0,0,.82.53l-.51,0a25,25,0,0,0,9.45-4.58,59.49,59.49,0,0,0,8-7.28,102.49,102.49,0,0,0,7-8.4c.58-.71,1-1.51,1.63-2.2s1.21-1.38,1.81-2.08C160.38,127.36,161.58,126,162.75,124.51Z" transform="translate(-128.88 -121.35)"/><path class="cls-3" d="M157.75,147c.59-.53,1.13-1.06,1.66-1.57.28-.23.48-.58.79-.72a5.69,5.69,0,0,0,.86-.54,5.82,5.82,0,0,0,1.35-1.28l.12-.17a.09.09,0,0,1,0-.06c.06,0,0,0,0-.05s0-.11-.19-.19c-.61-.39-1.48,0-1.76,1.24a10,10,0,0,0,0,3.92h0v.1a2.38,2.38,0,0,0,.13.48,1.89,1.89,0,0,0,.27.46,1.47,1.47,0,0,0,.85.54c.1,0,.16.09.26.14l.3.16a5.92,5.92,0,0,0,.69.25,12,12,0,0,0,1.64.28l-.73.48c-.26.14-.54.26-.82.39a3.73,3.73,0,0,1-2,.23,4,4,0,0,1-1.79-1.25,3.91,3.91,0,0,1-.82-2v.1a11.81,11.81,0,0,1,.06-4.81,3.87,3.87,0,0,1,1.61-2.36,2.91,2.91,0,0,1,3.15,0,2.37,2.37,0,0,1,1.07,1.54,2.17,2.17,0,0,1-.1,1c-.06.15-.12.3-.19.45l-.19.29a7.74,7.74,0,0,1-1.81,1.75c-.32.24-.67.44-1,.66a1.12,1.12,0,0,1-.55.22l-.59.12A10.82,10.82,0,0,1,157.75,147Z" transform="translate(-128.88 -121.35)"/><path class="cls-3" d="M190.13,149.26a21.87,21.87,0,0,1,2.24-3.23c.43-.51.87-1,1.34-1.48a3.88,3.88,0,0,1,.81-.6c.28-.18.56-.37.86-.54a10.64,10.64,0,0,1,3.92-1.51,5.86,5.86,0,0,1,2.29.13,5.46,5.46,0,0,1,2.07,1.08l.62.52-.39.73a31.23,31.23,0,0,0-1.42,3,13.38,13.38,0,0,0-.52,1.51,4.64,4.64,0,0,0-.13.69c0,.22,0,.36,0,.35l-1.91.26c.14-.93.32-1.81.55-2.72a10.71,10.71,0,0,1,1-2.77,2.89,2.89,0,0,1,.67-.78,1.74,1.74,0,0,1,.67-.33,1.61,1.61,0,0,1,.88,0,2.23,2.23,0,0,1,1,.71,5.06,5.06,0,0,1,.48.71,15.25,15.25,0,0,1,1.06,2.68l-1.57-.5c1-.73,1.91-1.43,2.89-2.12a28.85,28.85,0,0,1,3.11-2l.49-.23c.11,0,.18-.08.33-.12l.22,0a1.79,1.79,0,0,1,.35,0,1.51,1.51,0,0,1,.3.07l.13.06.05,0,.2.14a1.83,1.83,0,0,1,.27.27,3.35,3.35,0,0,1,.33.5,6.94,6.94,0,0,1,.64,1.9,8.88,8.88,0,0,1-.07,3.69,9.83,9.83,0,0,0-1.13-3.27,5.35,5.35,0,0,0-.92-1.27,1.26,1.26,0,0,0-.23-.18s-.07,0-.06,0v0h0l.08,0a.63.63,0,0,0,.2,0h.13s0,0,0,0l-.1,0-.32.14a27.5,27.5,0,0,0-2.86,1.82c-.95.67-1.9,1.37-2.82,2.07l-1.14.87-.43-1.37a13.57,13.57,0,0,0-.89-2.29,3.22,3.22,0,0,0-.26-.39c-.08-.12-.15-.12-.07-.1a.39.39,0,0,0,.22,0c.06,0,.1-.05.09,0a1.11,1.11,0,0,0-.19.24,9.11,9.11,0,0,0-.81,2.22c-.21.82-.38,1.68-.51,2.51l-.6,3.88L200,150.72a2.84,2.84,0,0,1-.15-1.35,6.55,6.55,0,0,1,.19-1,15.27,15.27,0,0,1,.6-1.75,33.1,33.1,0,0,1,1.53-3.22l.23,1.25a3.48,3.48,0,0,0-2.79-.76,8.72,8.72,0,0,0-3.16,1.24c-.25.15-.51.31-.75.49a4.84,4.84,0,0,1-.75.52c-.54.29-1.08.6-1.62.94C192.22,147.75,191.16,148.48,190.13,149.26Z" transform="translate(-128.88 -121.35)"/><path class="cls-3" d="M229.38,143.51c-.67-.35-1.35-.69-2-1.05h.5a24.19,24.19,0,0,0-1.87,2.3c-.5.85-1.22,1.47-1.67,2.28a5.14,5.14,0,0,0-.88,2.37,3,3,0,0,0,.69,2.08l-.94-.34a3.64,3.64,0,0,0,.78-.34,6.44,6.44,0,0,0,.84-.57,9,9,0,0,0,1.48-1.55,14.15,14.15,0,0,0,1.2-1.86l.5-1,.44-1,.24-.57.54-.06a3,3,0,0,1,1,.05,3.77,3.77,0,0,1,.85.29,4.46,4.46,0,0,1,1.36,1,6.43,6.43,0,0,1,.91,1.3,10.78,10.78,0,0,1,.58,1.38l.17.47-.3.43c-.28.39-.56.83-.8,1.24a6,6,0,0,0-.31.6,1.33,1.33,0,0,0-.07.21v0a.19.19,0,0,0,0-.06v0a.53.53,0,0,0,0-.13.82.82,0,0,0-.49-.52.82.82,0,0,0-.23,0s-.12,0-.08,0l.19-.08a6,6,0,0,0,.58-.34c.41-.26.82-.56,1.23-.87,1.63-1.25,3.22-2.63,4.79-4l.19-.17.23-.05a1.23,1.23,0,0,1,.29,0h.19a1.39,1.39,0,0,1,.31.07,1.58,1.58,0,0,1,.46.24,1.8,1.8,0,0,1,.5.57,3.64,3.64,0,0,1,.37,1.06,8.87,8.87,0,0,1,.15,1.88,22,22,0,0,1-.4,3.52,33.72,33.72,0,0,0-.79-3.35,7.48,7.48,0,0,0-.58-1.48,1.7,1.7,0,0,0-.37-.49.41.41,0,0,0-.08-.05l.08,0,.1,0h.08a.76.76,0,0,0,.19,0l.42-.22c-1.6,1.4-3.19,2.8-4.91,4.12-.43.33-.88.65-1.36,1a7.78,7.78,0,0,1-.79.45,3.09,3.09,0,0,1-.55.21,1.78,1.78,0,0,1-.46.06,1.3,1.3,0,0,1-.42-.08,1.08,1.08,0,0,1-.48-.32,1.06,1.06,0,0,1-.26-.47,1.63,1.63,0,0,1,0-.23,1.28,1.28,0,0,1,0-.14,2.2,2.2,0,0,1,0-.26l0-.18a3.16,3.16,0,0,1,.18-.54,7.84,7.84,0,0,1,.41-.81c.29-.5.58-.95.92-1.42l-.14.9a8.9,8.9,0,0,0-.45-1.07,4.45,4.45,0,0,0-.61-.88,2.47,2.47,0,0,0-.75-.58,1.78,1.78,0,0,0-.4-.14,2.07,2.07,0,0,0-.3,0l.78-.62-.49,1.15-.56,1.12a16.13,16.13,0,0,1-1.38,2.14,10.92,10.92,0,0,1-1.81,1.88,8.43,8.43,0,0,1-1.12.76,5,5,0,0,1-1.41.57l-.55.13-.39-.46a5,5,0,0,1-1.16-3.52,7.09,7.09,0,0,1,1.17-3.28,8.43,8.43,0,0,1,2.1-2.46,17.79,17.79,0,0,1,2.66-1.72l.33-.17.17.18C228.39,142.37,228.88,142.95,229.38,143.51Z" transform="translate(-128.88 -121.35)"/><path class="cls-3" d="M261.5,143.51a25.26,25.26,0,0,0-4.16,1.57c-.33.15-.63.34-.93.51a6.28,6.28,0,0,1-.87.51,4,4,0,0,0-1.41,1.13l-.23.33c0,.12-.09.24-.14.36a1.35,1.35,0,0,0-.1.61s0,0,0,0-.08,0,0,0a1.69,1.69,0,0,0,.66-.1,13.43,13.43,0,0,0,3.58-2,56.09,56.09,0,0,0,6.56-5.87c2.07-2.11,4-4.33,6-6.6l3.33-3.92-1.61,4.87L271,138c-.34,1.06-.72,2.1-1,3.17s-1,2-1.48,3-1,2-1.64,3l.55-3.33c.22-1.1.34-2.23.64-3.3s.71-2.1,1.07-3.15l1-3.16,1.71,1c-1.95,2.29-3.95,4.55-6.07,6.71a58,58,0,0,1-6.8,6.08,15,15,0,0,1-4.21,2.34,3.49,3.49,0,0,1-1.55.15,1.92,1.92,0,0,1-1-.49,1.88,1.88,0,0,1-.55-1,3.13,3.13,0,0,1,.16-1.59l.28-.69.4-.6a6.92,6.92,0,0,1,2-1.7,6.76,6.76,0,0,1,2.33-.71A16.9,16.9,0,0,1,261.5,143.51Z" transform="translate(-128.88 -121.35)"/><path class="cls-3" d="M275.5,145a11.3,11.3,0,0,0,2.09-1.87,2.85,2.85,0,0,0,.8-.66,1.42,1.42,0,0,0,.2-.34,1,1,0,0,1,0-.17.33.33,0,0,0,0,.11.65.65,0,0,0,.05.25.82.82,0,0,0,.49.47c.27.06.21,0,.18,0l-.19.06a4.19,4.19,0,0,0-.51.25,8.43,8.43,0,0,0-1,.7A6.22,6.22,0,0,0,276,145.6a1,1,0,0,0-.16.64c0,.08.12.23.41.39a6.54,6.54,0,0,0,2.34.54,22.45,22.45,0,0,0,2.7,0c.92.27,1.87.5,2.85.81a19,19,0,0,1-2.78,1.19,24.39,24.39,0,0,1-2.94-.05,8.26,8.26,0,0,1-3.11-.77,2.68,2.68,0,0,1-1.4-1.65,2.91,2.91,0,0,1,.34-2.07,8.05,8.05,0,0,1,2.16-2.39,10.4,10.4,0,0,1,1.3-.87,6.13,6.13,0,0,1,.76-.36,3.3,3.3,0,0,1,.48-.15,1.61,1.61,0,0,1,.88,0,1.21,1.21,0,0,1,.74.69,1.36,1.36,0,0,1,.09.43,2,2,0,0,1,0,.29c0,.17-.09.34-.14.51a3.41,3.41,0,0,1-.49.87,5.21,5.21,0,0,1-1.33,1.17A6.81,6.81,0,0,1,275.5,145Z" transform="translate(-128.88 -121.35)"/><path class="cls-3" d="M333,146.59c.36-.72.69-1.45,1-2.16a8,8,0,0,0,.34-1,6.54,6.54,0,0,1,.15-.84.38.38,0,0,0,0-.11s0,0,0,0,0,0,0,0a1.36,1.36,0,0,0-.59-.09,8.82,8.82,0,0,0-2.06.31,36.83,36.83,0,0,0-4.31,1.43c-1.43.55-2.85,1.17-4.27,1.79l.11-.06A8.34,8.34,0,0,0,321,148a.94.94,0,0,0-.16.39c0,.05,0,0,.05.1a2.73,2.73,0,0,0,1.16.51,12,12,0,0,0,1.68.27,8.1,8.1,0,0,1,1.77.21c1.19.3,2.43.53,3.68.83a27.56,27.56,0,0,1-3.72,1,5.55,5.55,0,0,1-1.92,0,13.9,13.9,0,0,1-2-.32,4.4,4.4,0,0,1-2.13-1.08,2.09,2.09,0,0,1-.59-1.57,2.85,2.85,0,0,1,.45-1.34,10,10,0,0,1,3.06-2.79l0,0,.07,0c1.44-.63,2.88-1.26,4.36-1.83a38.65,38.65,0,0,1,4.56-1.51,10.59,10.59,0,0,1,2.56-.37,3,3,0,0,1,1.66.41,1.8,1.8,0,0,1,.76.95,2.41,2.41,0,0,1,.1,1,2.39,2.39,0,0,1-.62,1.36,9.39,9.39,0,0,1-.88.95A12.7,12.7,0,0,1,333,146.59Z" transform="translate(-128.88 -121.35)"/><path class="cls-3" d="M342.75,137.76a4,4,0,0,1,.33-2.8,6.64,6.64,0,0,1,1.89-2.29l.59-.45.48-.38c.29-.27.63-.44.83-.67s.25-.4.24-.44-.14-.28-.27-.37l-3-2.12,3.58.28a1.14,1.14,0,0,1,.61.18,1.16,1.16,0,0,1,.26.22,1.34,1.34,0,0,1,.27.39,2.28,2.28,0,0,1,.21.61,5,5,0,0,1,.1,1,14.18,14.18,0,0,1-.09,1.67c-.14,1.06-.33,2.09-.55,3.1-.45,2-1,4-1.6,6s-1.22,3.91-1.88,5.85-1.35,3.86-2,5.78l-1.89-.66a17.29,17.29,0,0,1,2.59-4.64,10.68,10.68,0,0,1,4.3-3.36,9.11,9.11,0,0,1,2.79-.56,3.69,3.69,0,0,1,1.49.24,5.13,5.13,0,0,1,.78.42,2.24,2.24,0,0,1,.62.73,2.41,2.41,0,0,1,.2,1.66,5.51,5.51,0,0,1-.52,1.29,9.86,9.86,0,0,1-1.56,2.05,11.26,11.26,0,0,0,.81-2.33,4.52,4.52,0,0,0,.11-1.12c-.06-.33-.12-.63-.3-.73s-.19-.09-.25-.14-.26,0-.37-.07l-1,0a5.65,5.65,0,0,0-2.09.39,8.71,8.71,0,0,0-3.47,2.74,15.43,15.43,0,0,0-2.27,4l-1.89-.66c.67-1.91,1.38-3.82,2-5.74s1.28-3.85,1.86-5.78,1.12-3.88,1.56-5.83c.21-1,.39-1.95.52-2.91a12.46,12.46,0,0,0,.08-1.38,3.22,3.22,0,0,0-.05-.56,1.17,1.17,0,0,0,0-.11l.07.07.12.09a.74.74,0,0,0,.43.11l.54-1.85a2.89,2.89,0,0,1,.76.74,2.28,2.28,0,0,1,.42,1.08,2.55,2.55,0,0,1-.72,2,7,7,0,0,1-.61.61,4.34,4.34,0,0,1-.66.43l-.69.3-.58.23a6.16,6.16,0,0,0-2,1.39A3.81,3.81,0,0,0,342.75,137.76Z" transform="translate(-128.88 -121.35)"/><path class="cls-3" d="M361.38,149.47c-.77,0-1.68.26-1.88.7s0,.91.38,1.51a5.27,5.27,0,0,0,.36.93l.21.37a2.9,2.9,0,0,0,.28.29,2.11,2.11,0,0,0,1.48.58,3,3,0,0,0,1.63-.48,1.92,1.92,0,0,0,.82-1.25c.2-1-.65-2.2-1.7-3.13l-2.74-2.44,3.59.72,2.08.41h-.36l9-1.5-.57.3a1.71,1.71,0,0,1,.45-.33,1.62,1.62,0,0,1,1.6.06,2.78,2.78,0,0,1,.94,1.06,4,4,0,0,1,.45,2,14.33,14.33,0,0,1,0,1.87c0,.61-.13,1.22-.19,1.82-.42-1.14-.83-2.28-1.31-3.32a15.38,15.38,0,0,1-.7-1.39,1.83,1.83,0,0,0-.19-.28.39.39,0,0,0,.23,0c.12,0,.09,0,.2-.11l-.57.3-9,1.5-.18,0-.18,0-2.08-.41.86-1.73.92.93a11.25,11.25,0,0,1,.8,1.1,6.55,6.55,0,0,1,.56,1.34l.12.77a3.53,3.53,0,0,1,0,.8A3.94,3.94,0,0,1,365,155a5,5,0,0,1-2.81.83,4.12,4.12,0,0,1-2.79-1.11,4.84,4.84,0,0,1-.53-.57l-.39-.65a4.24,4.24,0,0,1-.29-.62,2.67,2.67,0,0,1-.24-.62c0-.24-.06-.46-.07-.7a5.64,5.64,0,0,1,0-.76,2.11,2.11,0,0,1,.83-1.46A2.63,2.63,0,0,1,361.38,149.47Z" transform="translate(-128.88 -121.35)"/><path class="cls-3" d="M375.25,135.26a1.45,1.45,0,0,0,0,1.13.59.59,0,0,0-.19.32,2.64,2.64,0,0,0,0,1.18,7.68,7.68,0,0,0,.43,1.42c.1.24.18.48.31.72-.16.37-.3.74-.53,1.18a6.59,6.59,0,0,1-1.28-.33c-.14-.26-.24-.55-.36-.83a9.61,9.61,0,0,1-.54-1.8,4.53,4.53,0,0,1,.08-2.16,3,3,0,0,1,.66-1.12A1.6,1.6,0,0,1,375.25,135.26Z" transform="translate(-128.88 -121.35)"/><path class="cls-3" d="M397.38,146.94a9.9,9.9,0,0,0-1.73-1,4.41,4.41,0,0,0-1.76-.46,1.42,1.42,0,0,0-1.21.52,3.27,3.27,0,0,0-.36.59c-.13.21-.25.47-.38.71l-.47-1.25c3.48,1.83,6.92,3.64,10.29,5.76.42.28.84.55,1.27.87a4,4,0,0,1,.71.63,2.34,2.34,0,0,1,.21.3,1.51,1.51,0,0,1,.18.55,1.26,1.26,0,0,1-.2.84,1.4,1.4,0,0,1-.48.43,2.55,2.55,0,0,1-1.18.26,6.33,6.33,0,0,1-.87,0,10.33,10.33,0,0,1-1.59-.32,7.77,7.77,0,0,1-3-1.5,2.77,2.77,0,0,1-1-2,2.33,2.33,0,0,1,.34-1.22,3.79,3.79,0,0,1,.63-.77,9.87,9.87,0,0,1,2.77-1.72,23.35,23.35,0,0,1,2.87-1,30.7,30.7,0,0,1,5.94-1.11,23.57,23.57,0,0,1,3.05-.07,15.32,15.32,0,0,1,1.63.21,4.48,4.48,0,0,1,1.57.76,3.75,3.75,0,0,1,1.15,1.42A3.54,3.54,0,0,1,416,150a6.05,6.05,0,0,1-1,2.87,6.2,6.2,0,0,0,.12-2.81,2.32,2.32,0,0,0-1.43-1.69c-.18-.07-.38-.1-.56-.15s-.41,0-.59-.11a6,6,0,0,0-1.26-.2,21.59,21.59,0,0,0-2.79.06,28.72,28.72,0,0,0-5.54,1,21.38,21.38,0,0,0-2.62.95,8.1,8.1,0,0,0-2.19,1.33,1,1,0,0,0-.36.52,1.07,1.07,0,0,0,.37.5,5.93,5.93,0,0,0,2.21,1.07,8.36,8.36,0,0,0,1.27.26,4.39,4.39,0,0,0,.59,0c.16,0,.37-.06.25,0a.66.66,0,0,0-.2.2.74.74,0,0,0-.13.5.49.49,0,0,0,.06.21s0,0,0,0a2.48,2.48,0,0,0-.39-.32c-.35-.27-.75-.53-1.14-.79-3.23-2-6.69-3.87-10.12-5.66l-.87-.46.39-.8a8.07,8.07,0,0,1,.52-1.09,3.55,3.55,0,0,1,1-.91,3,3,0,0,1,2.56-.36,5.24,5.24,0,0,1,1.9,1.15A9.13,9.13,0,0,1,397.38,146.94Z" transform="translate(-128.88 -121.35)"/><path class="cls-3" d="M418.63,137.14c.42.09.71.19,1,.28a1.7,1.7,0,0,0,0,.28v1.41c-.3.09-.6.19-1,.28-.4-.09-.7-.19-1-.28V137.7a1.7,1.7,0,0,0,0-.28C417.91,137.33,418.21,137.23,418.63,137.14Z" transform="translate(-128.88 -121.35)"/><path class="cls-3" d="M435.25,128.14c0,1.14-.1,2.22-.2,3.31-.39,1-.75,2-1.12,3-.73,2-1.45,4-2.13,5.94s-1.34,4-1.91,6c-.29,1-.56,2-.78,3-.26.47-.52.94-.73,1.42a9.71,9.71,0,0,0-.62,1.51l-.28-.81a7.94,7.94,0,0,1-.16-.84,15,15,0,0,1-.16-1.7c.23-1.07.51-2.1.81-3.13.59-2.06,1.26-4.07,1.94-6.08s1.41-4,2.14-6l1.11-3A29.32,29.32,0,0,1,435.25,128.14Z" transform="translate(-128.88 -121.35)"/><path class="cls-3" d="M444.13,138.23a13.78,13.78,0,0,1-1.72,1.15c-.6,0-1.2.09-1.8.13l-3.59.29-3.59.29-1.8.14a16.71,16.71,0,0,1-1.88-.85,16.71,16.71,0,0,1,1.72-1.14l1.8-.14,3.59-.29,3.59-.29c.6-.05,1.2-.09,1.8-.15A13.79,13.79,0,0,1,444.13,138.23Z" transform="translate(-128.88 -121.35)"/><path class="cls-3" d="M451,152.26a14.34,14.34,0,0,1,1.38-3.91,15.81,15.81,0,0,1,1.12-1.82,2.92,2.92,0,0,1,.73-.78c.27-.23.53-.49.82-.7a12.21,12.21,0,0,1,3.8-2.1,13.12,13.12,0,0,1,4.29-.69l1.47,0-.55,1.42c-.26.67-.51,1.4-.73,2.11s-.42,1.44-.58,2.16a12.69,12.69,0,0,0-.38,4.21l-1.8-.44a46.78,46.78,0,0,1,4.86-5.58,22.8,22.8,0,0,1,2.93-2.41,7.1,7.1,0,0,1,3.92-1.42l-.49.11a1.66,1.66,0,0,1,.58-.16,1.68,1.68,0,0,1,.54,0,2,2,0,0,1,.5.19,3.09,3.09,0,0,1,.38.29,3,3,0,0,1,.7,1.21,9,9,0,0,1,.33,2.09,6.57,6.57,0,0,1-.21,1.94c-.11.63-.28,1.24-.43,1.86v-.1a1.22,1.22,0,0,0,.06.57.91.91,0,0,0,.37.46,1.57,1.57,0,0,0,.69.2,4.12,4.12,0,0,0,.81-.06,4.26,4.26,0,0,1-.78.35,2,2,0,0,1-.93.06,1.64,1.64,0,0,1-.89-.55,2.19,2.19,0,0,1-.46-1v-.1c0-.61,0-1.22-.12-1.82s-.19-1.19-.15-1.75a5.63,5.63,0,0,0-.21-1.55,1.35,1.35,0,0,0-.19-.39l.09,0h.08s0,0,.13,0l-.49.11a5.34,5.34,0,0,0-2.75,1.09,20.88,20.88,0,0,0-2.65,2.18,44.91,44.91,0,0,0-4.63,5.32l-1.47,2-.33-2.41a10.78,10.78,0,0,1,0-2.56,20,20,0,0,1,.41-2.39c.17-.78.39-1.55.62-2.3s.48-1.5.78-2.26l.91,1.37a11.12,11.12,0,0,0-3.61.58,10.21,10.21,0,0,0-3.2,1.77c-.51.35-.88.87-1.38,1.25a14.14,14.14,0,0,0-1.43,1.29A19.08,19.08,0,0,0,451,152.26Z" transform="translate(-128.88 -121.35)"/><path class="cls-3" d="M484,144.79a5.17,5.17,0,0,0-2.57.16,3.65,3.65,0,0,0-.49.25,1.41,1.41,0,0,1-.42.25,2,2,0,0,0-.78.59,5.22,5.22,0,0,0-1,2,4.55,4.55,0,0,0-.29,2.14.75.75,0,0,0,.32.51,1.75,1.75,0,0,0,.82.24,7.81,7.81,0,0,0,2.37-.27,25.72,25.72,0,0,0,4.88-1.82l-.4.37a5.4,5.4,0,0,0,.6-1.55,1.46,1.46,0,0,0-.13-1.19c-.1-.1-.11-.34-.3-.5s-.42-.32-.66-.51-.57-.27-.91-.38Zm0,0,1-.31c.34-.07.72-.1,1.1-.14a4,4,0,0,1,1.23.19,2.13,2.13,0,0,1,.64.29,1.35,1.35,0,0,1,.55.52,3.7,3.7,0,0,1,.4,2.71,7.28,7.28,0,0,1-.86,2.21l-.14.25-.26.13a27.58,27.58,0,0,1-5.31,2,9.65,9.65,0,0,1-3,.31,3.7,3.7,0,0,1-1.75-.57,2.77,2.77,0,0,1-1.15-1.7,6.25,6.25,0,0,1,.32-3.2,7.15,7.15,0,0,1,1.47-2.76,5.13,5.13,0,0,1,1.36-1.07,2.86,2.86,0,0,1,1.71-.2A4.69,4.69,0,0,1,484,144.79Z" transform="translate(-128.88 -121.35)"/><path class="cls-3" d="M502.75,127.14l-.81,4.78-.78,4.75c-.4,1.54-.75,3.1-1,4.64-.14.77-.27,1.55-.35,2.3a10.48,10.48,0,0,0-.07,1.1,2.79,2.79,0,0,0,.07.77l-.73-.57a29,29,0,0,0,3.42.41,6.13,6.13,0,0,0,3-.34,1.56,1.56,0,0,1,1.15-.17,1.54,1.54,0,0,1,.94.74,3.57,3.57,0,0,1,.39,1.19,18.7,18.7,0,0,1,.19,1.89,12.29,12.29,0,0,0,.17,1.61c0,.08.06.18,0,.11a.47.47,0,0,0-.16-.18l-.05,0h0a3.06,3.06,0,0,0,.64.07,11.58,11.58,0,0,0,6.15-2,7.52,7.52,0,0,0,3.32-5.19l0,.41a2.08,2.08,0,0,0-.58-.94c-.21-.16-.35-.18-.71-.05a6.22,6.22,0,0,0-2.2,1.94,15,15,0,0,0-1,1.35l-.47.7c-.13.23-.27.45-.38.68a3.22,3.22,0,0,0-.36,1.22.68.68,0,0,0,.38.62,6.1,6.1,0,0,0,2.89.49c1.1-.05,2.25.05,3.4,0,2.31-.11,4.65-.35,7-.69a46.56,46.56,0,0,1-6.78,2.2c-.58.14-1.18.26-1.78.37a7.85,7.85,0,0,1-1.83.17,8.15,8.15,0,0,1-3.95-.82c-.17-.12-.35-.26-.51-.4a5.39,5.39,0,0,1-.44-.55,4.61,4.61,0,0,1-.28-.66,6.28,6.28,0,0,1-.1-.67,5,5,0,0,1,.57-2.15c.15-.3.32-.57.48-.86l.51-.76a16.84,16.84,0,0,1,1.09-1.49,7.79,7.79,0,0,1,3.09-2.57,2.8,2.8,0,0,1,1.3-.18,2.55,2.55,0,0,1,1.3.54,4,4,0,0,1,1.28,2l.06.18,0,.22a9.4,9.4,0,0,1-1.39,3.73,10,10,0,0,1-2.77,2.81,13.18,13.18,0,0,1-3.48,1.68,12.68,12.68,0,0,1-3.84.64,4.77,4.77,0,0,1-1.14-.14,2.11,2.11,0,0,1-.4-.15,2,2,0,0,1-.25-.15,1.75,1.75,0,0,1-.32-.34,2.37,2.37,0,0,1-.29-.72,13.26,13.26,0,0,1-.23-1.94c0-.59-.08-1.18-.17-1.67a2,2,0,0,0-.14-.52.51.51,0,0,0,.28.17.59.59,0,0,0,.29,0l-.52.25-.56.17a8.12,8.12,0,0,1-1,.15,15.12,15.12,0,0,1-1.92,0,30.83,30.83,0,0,1-3.69-.44l-.54-.1-.19-.47a4,4,0,0,1-.25-1.6,12.38,12.38,0,0,1,.08-1.3c.09-.84.22-1.65.37-2.46.3-1.61.67-3.19,1-4.77C500.25,133.11,501.42,130.1,502.75,127.14Z" transform="translate(-128.88 -121.35)"/><path class="cls-3" d="M497.88,133.39a23.67,23.67,0,0,1,2.48-1.3c.87-.08,1.73-.19,2.59-.29l5.19-.59,5.19-.59,2.59-.3c.9.2,1.8.4,2.71.7-.82.5-1.65.89-2.48,1.29l-2.59.3-5.19.59-5.19.59c-.86.1-1.73.19-2.59.31A23.66,23.66,0,0,1,497.88,133.39Z" transform="translate(-128.88 -121.35)"/><path class="cls-3" d="M551.25,147.73a10.46,10.46,0,0,0,2-2.47,3.46,3.46,0,0,0,.52-2.64,2.39,2.39,0,0,0-.62-1c-.1-.17-.34-.28-.49-.43l-.23-.21a1.32,1.32,0,0,1-.19-.15c-.47-.33-1.18-.15-1.92.37a10.17,10.17,0,0,0-3.23,4.75,4.54,4.54,0,0,0-.24,2.54.72.72,0,0,0,.47.51,2.53,2.53,0,0,0,1.1,0,11.88,11.88,0,0,0,5.35-2.44,16.59,16.59,0,0,0,3.94-4.61A25.76,25.76,0,0,0,561,130.1l2,.19-.64,4.69c-.19,1.57-.41,3.13-.54,4.7s-.61,3.1-.87,4.66c-.15.78-.27,1.56-.37,2.34a7.58,7.58,0,0,0-.07,2.35,7.67,7.67,0,0,1-.53-2.35c-.08-.8-.13-1.61-.17-2.41,0-1.6-.12-3.21,0-4.8l.58-4.73L561,130l2,.19a27.74,27.74,0,0,1-3.57,12.8,18.58,18.58,0,0,1-4.42,5.16,13.87,13.87,0,0,1-6.29,2.85,4.37,4.37,0,0,1-2.09-.13,2.76,2.76,0,0,1-1.68-1.75,4.68,4.68,0,0,1-.16-2,8.37,8.37,0,0,1,.4-1.78,13,13,0,0,1,1.54-3.14,10.18,10.18,0,0,1,2.43-2.63,5,5,0,0,1,1.84-.84,3.34,3.34,0,0,1,2.27.34,3,3,0,0,1,.81.67,3.88,3.88,0,0,1,.58.77,4.06,4.06,0,0,1,.63,1.91,3.87,3.87,0,0,1-.36,1.9,6.06,6.06,0,0,1-1,1.45A9.68,9.68,0,0,1,551.25,147.73Z" transform="translate(-128.88 -121.35)"/><path class="cls-3" d="M569.25,142.39a6.66,6.66,0,0,0,3.73-3.17,4.51,4.51,0,0,0,.44-2.31,6.41,6.41,0,0,0-.17-1.17c-.1-.39-.25-.76-.36-1.14l.11.2a1.2,1.2,0,0,0-.73-.35c-.19,0-.36.12-.57.36a6.11,6.11,0,0,0-.91,2.13c-.1.41-.18.84-.27,1.26s-.14.86-.24,1.29a5.46,5.46,0,0,0-.06,2.28,1.89,1.89,0,0,0,1.12,1.36,5,5,0,0,0,2.21.31,16.72,16.72,0,0,0,5-1.16l.07,0c-.21.08-.15.08-.19.09l0,0,0-.06a1.32,1.32,0,0,0,.11-.3,3.86,3.86,0,0,0,.12-.9,8.49,8.49,0,0,0,0-1c0-.17,0-.35-.05-.53l0-.28,0-.42c0-.1,0-.2,0-.3l0-.15a1.71,1.71,0,0,1,.09-.24,1.12,1.12,0,0,1,.36-.47,1.14,1.14,0,0,1,.63-.27,1.52,1.52,0,0,1,.8.12,3.62,3.62,0,0,1,.39.21,6.88,6.88,0,0,1,1,.85c.59.57,1.11,1.15,1.62,1.75,1,1.19,1.94,2.41,2.84,3.68a21.78,21.78,0,0,1,1.29,2c.06.11.1.2.17.35a2,2,0,0,1,.1.3,1.51,1.51,0,0,1,0,.38.61.61,0,0,1,0,.12,1.13,1.13,0,0,1-.11.28,1.11,1.11,0,0,1-.17.23l-.11.09a1.22,1.22,0,0,1-.22.14l-.13.05-.2.06-.27,0h-.4a7.06,7.06,0,0,1-3.77-1.29,3.82,3.82,0,0,1-1.54-2.56,5,5,0,0,1,.53-2.76,11.17,11.17,0,0,1,1.36-2.11,36.15,36.15,0,0,1,7-6.19c2.51-1.78,5.12-3.4,7.75-5l7.86-4.63,2-1.14,1-.57a6.65,6.65,0,0,1,.63-.31l.08,0c.11,0-.07,0,.27,0-.05-.94,1.36,1.46.93,1.46a1.06,1.06,0,0,1-.18.25,1.41,1.41,0,0,1-.15.14l-.15.11-.25.18c-1.3.86-2.58,1.66-3.87,2.47L598,131l.36-.38a21,21,0,0,0-1.45,3.94,20,20,0,0,0-.63,4.17,14.47,14.47,0,0,0,.41,4.12l.29,1,.4.94c.07.16.12.32.18.48l.24.46.46.93-1.7.5a35.25,35.25,0,0,1,.54-4.08,19.53,19.53,0,0,1,1.15-4,7.18,7.18,0,0,1,1.09-1.83,2.78,2.78,0,0,1,1.92-1.06,3.21,3.21,0,0,1,2,.67,8.87,8.87,0,0,1,1.49,1.36,8.74,8.74,0,0,0-1.63-1.13,2.83,2.83,0,0,0-1.79-.38c-1.18.23-1.79,1.52-2.15,2.7a18.41,18.41,0,0,0-.66,3.82,33.77,33.77,0,0,0-.09,3.9l.12,3.07-1.82-2.57a11.75,11.75,0,0,1-2-4.32,16.48,16.48,0,0,1-.47-4.68,22,22,0,0,1,.7-4.6,22.74,22.74,0,0,1,1.62-4.38l.11-.23.24-.15,7.74-4.8c1.28-.81,2.58-1.62,3.81-2.44l.21-.15.08-.06,0,0a1,1,0,0,0-.16.23c-.42,0,1,2.38.92,1.45.34,0,.14,0,.24,0l0,0-.38.2-1,.55-2,1.13L598.63,130c-2.61,1.54-5.16,3.13-7.61,4.86a34.41,34.41,0,0,0-6.63,5.81c-.87,1.08-1.6,2.38-1.47,3.36s1.18,1.68,2.46,2a4.69,4.69,0,0,0,.92.13h.18l-.06,0-.06,0a.85.85,0,0,0-.16.1l-.08.07a.91.91,0,0,0-.15.2.88.88,0,0,0-.09.25l0,.09a.6.6,0,0,0,0,.24c0,.08,0,0,0,0l-.08-.16a20.41,20.41,0,0,0-1.16-1.81c-.85-1.21-1.77-2.4-2.73-3.53-.48-.56-1-1.11-1.48-1.6a5.16,5.16,0,0,0-.72-.6l-.11-.06s0,0,.25,0a.77.77,0,0,0,.57-.41.43.43,0,0,0,0-.11h0a0,0,0,0,0,0,0l.11,1a10.44,10.44,0,0,1,0,1.25,5.78,5.78,0,0,1-.19,1.35,3.26,3.26,0,0,1-.3.76,2.27,2.27,0,0,1-.29.41,1.78,1.78,0,0,1-.22.21l-.15.11-.1.06-.18.08.07,0a18.58,18.58,0,0,1-5.62,1.3,6.9,6.9,0,0,1-3.13-.49,4.09,4.09,0,0,1-1.44-1.08,4.34,4.34,0,0,1-.79-1.61,7.87,7.87,0,0,1,0-3.13c.09-.46.2-.92.31-1.38s.28-.91.45-1.37a7.44,7.44,0,0,1,1.56-2.67,2.22,2.22,0,0,1,1.83-.68,2.53,2.53,0,0,1,1.58,1l.09.11,0,.09c.09.45.21.9.27,1.35a7.44,7.44,0,0,1,0,1.39,5.34,5.34,0,0,1-.83,2.62,5.87,5.87,0,0,1-1.92,1.86A8,8,0,0,1,569.25,142.39Z" transform="translate(-128.88 -121.35)"/><path class="cls-3" d="M610.75,140.2a5.72,5.72,0,0,1,1.15-.14c.1.17.22.33.33.5a11.86,11.86,0,0,1,.62,1,6.77,6.77,0,0,1,.48,1.22,3.71,3.71,0,0,1,.12.75,1.68,1.68,0,0,1-1.07.6,1.81,1.81,0,0,0-.92-.49,1.76,1.76,0,0,0-.06-.34,4.86,4.86,0,0,0-.33-.83,9.94,9.94,0,0,0-.5-.86,4.06,4.06,0,0,0-.3-.42C610.4,140.92,610.53,140.6,610.75,140.2Z" transform="translate(-128.88 -121.35)"/><path class="cls-3" d="M616.88,131a9.75,9.75,0,0,0,.28,1.19,3,3,0,0,0-.35.54,5.55,5.55,0,0,0-.48,1.24,6.52,6.52,0,0,0-.17,1.35c0,.23,0,.46,0,.7-.28.26-.54.53-.91.86a5,5,0,0,1-1.08-.72c0-.3,0-.59,0-.89a8.51,8.51,0,0,1,.23-1.78,7.54,7.54,0,0,1,.66-1.71c.14-.28.32-.53.49-.79A3,3,0,0,1,616.88,131Z" transform="translate(-128.88 -121.35)"/><path class="cls-3" d="M628.38,136.89c.4,1.14.68,2.27,1,3.4,0,1.13,0,2.25,0,3.37,0,.56,0,1.12,0,1.64v.15a.54.54,0,0,0,0-.14,1,1,0,0,0-.22-.38,1,1,0,0,0-.34-.23,1,1,0,0,0-.41-.06.88.88,0,0,0-.34.1l-.09.06c-.07.06.05-.06.11-.14s.3-.41.46-.63c.63-.91,1.27-1.87,2-2.8a13.94,13.94,0,0,1,2.49-2.67,3.22,3.22,0,0,1,2.28-.77,2.25,2.25,0,0,1,1.32.67,3.44,3.44,0,0,1,.66,1,11.31,11.31,0,0,1,.85,3.62,19.82,19.82,0,0,1-.83,3.48c-.41-1.12-.75-2.23-1.16-3.28a9.65,9.65,0,0,0-.66-2.95c-.19-.41-.4-.55-.44-.53a1.5,1.5,0,0,0-.82.38,12.23,12.23,0,0,0-2.1,2.28c-.66.87-1.27,1.79-1.93,2.74-.17.24-.33.48-.54.74a2.74,2.74,0,0,1-.46.48l-.18.11a1.22,1.22,0,0,1-.44.13,1.08,1.08,0,0,1-.46-.07,1,1,0,0,1-.38-.25,1.15,1.15,0,0,1-.27-.47,1.59,1.59,0,0,1,0-.25v-.17c0-.61,0-1.17,0-1.74v-3.4A33.62,33.62,0,0,1,628.38,136.89Z" transform="translate(-128.88 -121.35)"/><path class="cls-3" d="M129.83,196.35a14.28,14.28,0,0,0,3.49-.39,6.25,6.25,0,0,0,.8-.23,4.67,4.67,0,0,0,.76-.3,8.14,8.14,0,0,0,1.46-.52,5.21,5.21,0,0,0,2.22-2,6.56,6.56,0,0,0,.69-1.38c.19-.49.28-1,.43-1.54l.1.65a2.3,2.3,0,0,0-.85-.85,1,1,0,0,0-.91,0,5.93,5.93,0,0,0-2.07,2.18c-.31.47-.57,1-.85,1.5l-.75,1.6-.31.78c-.08.26-.16.51-.22.76a2.44,2.44,0,0,0,0,1.21c.09.21.23.33.66.43a4.64,4.64,0,0,0,1.48,0,17.8,17.8,0,0,0,3.33-.86l.83-.3c.28-.1.53-.26.83-.33.59-.13,1.18-.27,1.77-.43,1.18-.31,2.37-.62,3.56-1a34.16,34.16,0,0,1-3,2.24c-.52.34-1,.69-1.59,1s-1.17.43-1.75.66a19.65,19.65,0,0,1-3.73,1,6.53,6.53,0,0,1-2.15,0,2.54,2.54,0,0,1-.6-.18,2.15,2.15,0,0,1-.61-.33,2.45,2.45,0,0,1-.9-1.15,4.24,4.24,0,0,1-.07-2.38q.13-.5.29-1l.36-.92.8-1.71c.32-.56.6-1.12,1-1.67a11.47,11.47,0,0,1,1.2-1.6,5.65,5.65,0,0,1,1.77-1.35,3.09,3.09,0,0,1,2.61.08,4.21,4.21,0,0,1,1.7,1.69l.19.32-.09.33a19.35,19.35,0,0,1-.52,1.88,8.55,8.55,0,0,1-.9,1.78,7.92,7.92,0,0,1-1.31,1.56l-.81.62a9.14,9.14,0,0,1-.88.5,6.57,6.57,0,0,1-.93.39,2.74,2.74,0,0,1-1,.27,6.18,6.18,0,0,1-1,0,7.6,7.6,0,0,1-1-.06A10.87,10.87,0,0,1,129.83,196.35Z" transform="translate(-128.88 -121.35)"/><path class="cls-3" d="M149,180.43a8.55,8.55,0,0,0-.6,2.44,12.47,12.47,0,0,0,0,2.38,9,9,0,0,0,.08,2.32,14.31,14.31,0,0,0,.55,2.29l-.36-.49a5.76,5.76,0,0,1,1,1,10.79,10.79,0,0,1,.72,1.07,14.86,14.86,0,0,1,1.07,2.25,22.73,22.73,0,0,1,.76,2.32c.2.78.37,1.57.52,2.36l-2,.22a23.62,23.62,0,0,1,.45-5.12,13.23,13.23,0,0,1,1.93-4.91,7.32,7.32,0,0,1,2-2,6.27,6.27,0,0,1,2.7-1,9.09,9.09,0,0,1,4.92,1.79,10.12,10.12,0,0,0-4.65.2,4.65,4.65,0,0,0-3.32,2.13,11.3,11.3,0,0,0-1.62,4.16,21.77,21.77,0,0,0-.41,4.64l-2,.22c-.14-.74-.29-1.47-.48-2.2a20.74,20.74,0,0,0-.69-2.11,12.88,12.88,0,0,0-.93-2,8.8,8.8,0,0,0-.58-.87,4.55,4.55,0,0,0-.59-.65l-.27-.23-.08-.26a16.29,16.29,0,0,1-.64-2.64,16.87,16.87,0,0,1-.15-2.75,9.55,9.55,0,0,1,1-2.6A7.1,7.1,0,0,1,149,180.43Z" transform="translate(-128.88 -121.35)"/><path class="cls-3" d="M194.75,203.85c.33-.78.7-1.54,1.07-2.3l.59-1.12a3.91,3.91,0,0,1,.67-1.05c1.08-1.25,2.13-2.52,3.25-3.75.56-.62,1.13-1.23,1.75-1.83a10.45,10.45,0,0,1,1.06-.9,2.72,2.72,0,0,1,.49-.26,1.36,1.36,0,0,1,.3-.11,1.45,1.45,0,0,1,.45,0,1.52,1.52,0,0,1,.8.34,2.09,2.09,0,0,1,.4.46,4.71,4.71,0,0,1,.56,1.48,13.35,13.35,0,0,1,.22,1.32,24.76,24.76,0,0,1,.15,2.57l-1.76-.65c.89-1,1.79-2,2.74-3a19.83,19.83,0,0,1,3.19-2.77,3.66,3.66,0,0,1,.62-.31,1.54,1.54,0,0,1,1.31.05l.21.14.09.09.17.19a1.8,1.8,0,0,1,.23.35,3.92,3.92,0,0,1,.27.62c.12.38.2.74.28,1.08a2.64,2.64,0,0,1,.09,1c0,.68,0,1.34,0,2a4.4,4.4,0,0,0,.34,1.91,4.17,4.17,0,0,1-1.28-1.68c-.32-.63-.55-1.29-.81-1.91a2.85,2.85,0,0,1-.28-.93,6.33,6.33,0,0,0-.21-.85,2,2,0,0,0-.12-.29s0-.09,0-.07h0l.1.08c.37.17.42,0,.35.09l-.27.14a18.61,18.61,0,0,0-2.8,2.46c-.91.93-1.8,1.9-2.65,2.88l-1.73,2,0-2.64a22.9,22.9,0,0,0-.14-2.34c0-.38-.1-.76-.18-1.11a3.07,3.07,0,0,0-.28-.82c0-.08,0,0,.24.09a.54.54,0,0,0,.15,0s0,0,0,0,0,0,0,0a9.06,9.06,0,0,0-.81.7c-.56.54-1.11,1.13-1.65,1.73-1.08,1.2-2.15,2.43-3.18,3.7a4,4,0,0,1-.9.84l-1,.79C196.1,202.83,195.44,203.35,194.75,203.85Z" transform="translate(-128.88 -121.35)"/><path class="cls-3" d="M224.5,194.6a14.06,14.06,0,0,0-1,2.63,5.5,5.5,0,0,0-.17,2.57,1.66,1.66,0,0,0,1.37,1.33,10.68,10.68,0,0,0,2.41.09,4.74,4.74,0,0,0,1.22-.18,4.37,4.37,0,0,0,1.1-.4,4.13,4.13,0,0,0,1.61-1.54,7.83,7.83,0,0,0,.63-4.81l-.16-1,1-.16a18.94,18.94,0,0,1,2.7-.25,8.12,8.12,0,0,1,2.89.38l.4.18c.14.08.28.17.41.27a4.88,4.88,0,0,1,.58.53,10,10,0,0,1,.89,1.1,19.73,19.73,0,0,1,1.4,2.3l.3.61.15.32a3,3,0,0,1,.17.47v0a.89.89,0,0,0-.32-.54l-.1-.07a.84.84,0,0,0-.2-.09H242a4.92,4.92,0,0,0,.52-.06,7.79,7.79,0,0,0,2.14-.67,4.48,4.48,0,0,0,1.64-1.26,2.79,2.79,0,0,0,.56-1.76l2,.1a14,14,0,0,0,0,3.34,2.44,2.44,0,0,0,.38,1.11c.06,0,0,0,0,0a1.38,1.38,0,0,0,.45-.18c2.1-1.15,4.2-2.37,6.36-3.51a28.33,28.33,0,0,1,3.42-1.6c.19-.05.35-.11.56-.16l.39,0a1.83,1.83,0,0,1,.54.06,1.73,1.73,0,0,1,.84.57,3,3,0,0,1,.37.57c.32.65.51,1.18.75,1.71a14.91,14.91,0,0,0,1.74,2.91c.34.45.75.86,1.11,1.3s.74.89,1.12,1.33l.28.32v.27a1.13,1.13,0,0,1-.08.42,1.25,1.25,0,0,1-.12.25,1.88,1.88,0,0,1-.28.35,3,3,0,0,1-.59.43,5,5,0,0,1-1.13.42,10.46,10.46,0,0,1-2.18.28,18.7,18.7,0,0,1-2.12,0c-.7,0-1.4-.11-2.09-.18.69-.09,1.38-.17,2.07-.29s1.36-.23,2-.4a10.6,10.6,0,0,0,1.88-.63,3.54,3.54,0,0,0,.75-.44,1.33,1.33,0,0,0,.21-.23s0-.06,0-.07h0v0a.35.35,0,0,0,0,.14l.28.59c-.49-.4-1-.77-1.46-1.21a11.58,11.58,0,0,1-1.24-1.46,16.94,16.94,0,0,1-2-3.3c-.26-.57-.49-1.18-.71-1.61-.1-.21-.22-.25,0-.14s-.08,0-.28.11a27.14,27.14,0,0,0-3.13,1.48c-2.11,1.12-4.19,2.33-6.34,3.5a3.18,3.18,0,0,1-1.25.42,2,2,0,0,1-1.61-.6,4,4,0,0,1-.93-2.21,15.85,15.85,0,0,1,0-3.89l2,.1a4.81,4.81,0,0,1-1,3,6.45,6.45,0,0,1-2.35,1.85,9.76,9.76,0,0,1-2.71.85,6.87,6.87,0,0,1-.75.08,3.66,3.66,0,0,1-.44,0,1.85,1.85,0,0,1-.33-.05,1.27,1.27,0,0,1-.34-.14.74.74,0,0,1-.13-.09,1.12,1.12,0,0,1-.36-.6h0c0,.07,0-.07-.06-.13l-.12-.26-.27-.53a17.79,17.79,0,0,0-1.25-2.06c-.44-.62-1-1.29-1.37-1.37a6.38,6.38,0,0,0-2.15-.25,17.08,17.08,0,0,0-2.38.22l.81-1.18a11.17,11.17,0,0,1,.08,3.12,8.18,8.18,0,0,1-.94,3.07,6.15,6.15,0,0,1-2.41,2.32l-.76.34a5.91,5.91,0,0,1-.78.23,7.87,7.87,0,0,1-1.57.25,5.73,5.73,0,0,1-3.17-.47,3.46,3.46,0,0,1-1.42-1.13,3.06,3.06,0,0,1-.55-1.69,6.4,6.4,0,0,1,.79-2.94A13.53,13.53,0,0,1,224.5,194.6Z" transform="translate(-128.88 -121.35)"/><path class="cls-3" d="M297.5,205.1a22.11,22.11,0,0,1,2.42-4.56,21.06,21.06,0,0,1,3.5-4,16.62,16.62,0,0,1,4.85-2.39,14.32,14.32,0,0,1,5.44-.42l1.38.12-.62,1.32a17.17,17.17,0,0,0-1.17,3.32,7.1,7.1,0,0,0-.14,3.23,2.42,2.42,0,0,0,.26.62c.06.09.1.19.17.27l.22.22a2.25,2.25,0,0,0,1.17.56,8.24,8.24,0,0,0,3.28-.33,14.33,14.33,0,0,0,6.07-3.31c.78-.78,1.26-1.72,1-2.35a2.26,2.26,0,0,0-.76-1,7.33,7.33,0,0,0-1.39-.81,2.3,2.3,0,0,0-2.52.11,5.43,5.43,0,0,0-1.49,2.71,13.45,13.45,0,0,0-.35,1.71c0,.29-.07.59-.09.86a4.35,4.35,0,0,0,0,.77,2.66,2.66,0,0,0,1.3,2.28,4.47,4.47,0,0,0,3,0c1.08-.35,2.26-.61,3.4-1.08a57.65,57.65,0,0,0,6.71-3.3,41.62,41.62,0,0,1-6,4.68c-.56.33-1.11.67-1.71,1a6.9,6.9,0,0,1-1.88.7,9.41,9.41,0,0,1-2.09.29,4.94,4.94,0,0,1-2.27-.46,4.08,4.08,0,0,1-1.77-1.7,5.75,5.75,0,0,1-.65-2.17,6.36,6.36,0,0,1,0-1.11c0-.35.06-.67.11-1a15.44,15.44,0,0,1,.41-2,7.27,7.27,0,0,1,2.15-3.73,3.78,3.78,0,0,1,2.32-.87,5.39,5.39,0,0,1,2.25.48,9.17,9.17,0,0,1,1.85,1.09,4.22,4.22,0,0,1,1.43,2,3.54,3.54,0,0,1-.21,2.53,6.52,6.52,0,0,1-1.29,1.8,13.51,13.51,0,0,1-3.28,2.37,18,18,0,0,1-3.69,1.47,10.07,10.07,0,0,1-4.15.37,4.27,4.27,0,0,1-2.17-1l-.44-.45a5.24,5.24,0,0,1-.34-.52,4.4,4.4,0,0,1-.46-1.1,9,9,0,0,1,.12-4.2,19,19,0,0,1,1.32-3.76l.77,1.43a12.32,12.32,0,0,0-4.63.36,13.77,13.77,0,0,0-4.21,2.11,22.14,22.14,0,0,0-3.85,3A26.7,26.7,0,0,0,297.5,205.1Z" transform="translate(-128.88 -121.35)"/><path class="cls-3" d="M338.83,194.3a6.42,6.42,0,0,1,1,2.85,16.29,16.29,0,0,1,.15,3.06,22.91,22.91,0,0,1-.32,3c-.26,1-.58,1.93-.87,2.9-.65,1.9-1.37,3.77-2.18,5.59s-1.68,3.61-2.56,5.39l-1.8-.86c.94-2.08,1.93-4.1,3-6.11s2.15-4,3.37-5.92a26.39,26.39,0,0,1,4.34-5.5,6.58,6.58,0,0,1,.76-.59l.42-.27.5-.23a1.86,1.86,0,0,1,.56-.17,2.58,2.58,0,0,1,.63-.08,6.6,6.6,0,0,1,.68.08,5.39,5.39,0,0,1,.63.28,3.82,3.82,0,0,1,1.42,1.73,10.59,10.59,0,0,1,.6,1.79l-1.47-.64a39.79,39.79,0,0,1,4.09-2,20.51,20.51,0,0,1,4.47-1.34,5.24,5.24,0,0,1,2.62.43,2.65,2.65,0,0,1,1.11,1.05,3.47,3.47,0,0,1,.34,1.26,7.59,7.59,0,0,0,.51,2,2.48,2.48,0,0,0,.56.86,1,1,0,0,0,1,.3,1.18,1.18,0,0,1-1.13-.06,2.88,2.88,0,0,1-.89-.79,8.36,8.36,0,0,1-1.09-2.06,2.45,2.45,0,0,0-.4-.81,1.19,1.19,0,0,0-.58-.32,4.28,4.28,0,0,0-1.75.12,15.66,15.66,0,0,0-4,1.17,37.93,37.93,0,0,0-3.86,1.87l-1.1.61-.37-1.25a8.76,8.76,0,0,0-.46-1.4,2,2,0,0,0-.63-.86c-.16-.14-.37-.09-.73,0l-.27.12-.28.19a4.69,4.69,0,0,0-.57.44,24.78,24.78,0,0,0-4,5.06,103.34,103.34,0,0,0-6.21,11.77l-1.8-.86c.87-1.75,1.74-3.49,2.51-5.28s1.48-3.59,2.11-5.42a28.76,28.76,0,0,0,.78-2.77c.3-.91.62-1.82.86-2.75a19.29,19.29,0,0,0,.52-2.83A6.6,6.6,0,0,0,338.83,194.3Z" transform="translate(-128.88 -121.35)"/><path class="cls-3" d="M375.42,198.51a5.28,5.28,0,0,0-2.66,2.5,4.32,4.32,0,0,0-.9,3.07c0,.3,0,.59.07.89l.17.9a3.72,3.72,0,0,0,.58,1.43,1,1,0,0,0,.89.43,3.06,3.06,0,0,0,1.37-.53,9,9,0,0,0,2.47-2.55,6.39,6.39,0,0,0,1.16-3.16,2,2,0,0,0-.1-.64,1.29,1.29,0,0,0-.33-.47,1.93,1.93,0,0,0-1-.67c-.21-.22-.72-.11-1.22.24a6.21,6.21,0,0,0-1.37,1.4,5.35,5.35,0,0,1,.54-2.08,3,3,0,0,1,.77-1,2.93,2.93,0,0,1,.62-.39,3,3,0,0,1,.78-.18,1.59,1.59,0,0,1,.76.16,3.47,3.47,0,0,1,.63.31c.18.12.37.24.53.38l.43.41a3,3,0,0,1,.44.52,3.58,3.58,0,0,1,.34.65,4,4,0,0,1,.23,1.33,8.22,8.22,0,0,1-1.49,4.27,10.9,10.9,0,0,1-3.06,3.14,5,5,0,0,1-2.34.84,3,3,0,0,1-2.57-1.19,5.59,5.59,0,0,1-1-2.22l-.2-1.06c-.05-.36-.06-.74-.09-1.1a6.48,6.48,0,0,1,1.34-4.41A5.28,5.28,0,0,1,375.42,198.51Z" transform="translate(-128.88 -121.35)"/><path class="cls-3" d="M395.67,199.18a14,14,0,0,0,.63-1.69,4.42,4.42,0,0,0,.24-1.7c0-.26-.15-.43-.33-.44a1.43,1.43,0,0,0-.71.12,7.61,7.61,0,0,0-1.5.84,31.08,31.08,0,0,0-2.8,2.2c-.91.78-1.8,1.58-2.61,2.41a14.09,14.09,0,0,0-1.13,1.28,4.07,4.07,0,0,0-.71,1.24c0,.15,0,.23,0,.14s0,0,0,0,0,.05.15.08a4.38,4.38,0,0,0,1.39.25,31.94,31.94,0,0,0,6.91-.92l.87-.2.43-.11.34-.11a11.36,11.36,0,0,0,1.51-.69,17.16,17.16,0,0,0,2.82-1.93,24,24,0,0,0,4.61-5.17c1.28-1.92,2.4-4.09,3.6-6.18l3.53-6.31,1.57,1.2a23.34,23.34,0,0,0-3.12,4.25A32.5,32.5,0,0,0,409,192.6a34.73,34.73,0,0,0-1.5,5.19c-.22.88-.31,1.78-.47,2.67s-.18,1.8-.28,2.7l-1.9-.51a31.56,31.56,0,0,1,1.78-3.05,24.53,24.53,0,0,1,2.15-2.83,11.61,11.61,0,0,1,2.84-2.4,5.71,5.71,0,0,1,1.93-.7,4.29,4.29,0,0,1,2.18.23l-.45-.06a2.24,2.24,0,0,1,1,.16,2.28,2.28,0,0,1,.78.51,2.77,2.77,0,0,1,.51.72,3.75,3.75,0,0,1,.24.73,6.36,6.36,0,0,1-.08,2.54,9.87,9.87,0,0,1-.27,1.13c-.1.37-.22.73-.34,1.08-.23.72-.54,1.39-.81,2.08l.08-.33a1.19,1.19,0,0,0,.13.56c.07.1.08.12.29.15a3.71,3.71,0,0,0,1.77-.5c.33-.16.64-.35,1-.54a13,13,0,0,1,1.19-.61,11.81,11.81,0,0,1,2.54-.78c1.72-.32,3.39-.28,4.74-.64a5.28,5.28,0,0,0,3.16-2.48,2.13,2.13,0,0,0,.47-1.38c0-.05-.06-.12-.29-.2a2.44,2.44,0,0,0-.83-.1,5.76,5.76,0,0,0-2,.5,7.43,7.43,0,0,0-1.81,1.05,4.31,4.31,0,0,0-1.25,1.59,22.79,22.79,0,0,0-.78,2.21,13.53,13.53,0,0,0-.68,4.57l-.18-.27a2.71,2.71,0,0,0,1.52.43,3,3,0,0,0,1.59-.52,5.43,5.43,0,0,0,1.3-1.23,12.44,12.44,0,0,0,1-1.56,12.54,12.54,0,0,1-.8,1.69,5.77,5.77,0,0,1-1.22,1.47,3.39,3.39,0,0,1-3.85.45l-.15-.08,0-.19a14.24,14.24,0,0,1,.19-5.07,24,24,0,0,1,.59-2.45,6,6,0,0,1,1.49-2.38,7.34,7.34,0,0,1,5-2.2,4.38,4.38,0,0,1,1.57.21,2.37,2.37,0,0,1,1.48,1.35,2.78,2.78,0,0,1,0,1.86,5.81,5.81,0,0,1-.64,1.33,8.68,8.68,0,0,1-1.81,2.07,6.43,6.43,0,0,1-2.52,1.27c-1.8.46-3.42.39-4.9.68a9.8,9.8,0,0,0-2.1.64c-.34.13-.65.33-1,.5s-.74.43-1.14.62a8.44,8.44,0,0,1-1.28.51,4.06,4.06,0,0,1-1.6.17,2.3,2.3,0,0,1-1.73-1.05,3.07,3.07,0,0,1-.44-1.77v-.13l.08-.2c.26-.65.55-1.29.76-1.94a10.19,10.19,0,0,0,.31-1,8.07,8.07,0,0,0,.24-1,4.55,4.55,0,0,0,.09-1.74c-.08-.5-.32-.52-.38-.55l-.45-.06a2.78,2.78,0,0,0-2.42.34,9.7,9.7,0,0,0-2.33,2,22.57,22.57,0,0,0-2,2.6,29.76,29.76,0,0,0-1.65,2.83l-2.45,4.83.56-5.34c.1-.94.16-1.89.29-2.83s.26-1.88.49-2.81a36.72,36.72,0,0,1,1.59-5.48,34.5,34.5,0,0,1,2.47-5.16,24.94,24.94,0,0,1,3.46-4.68l5.39-5.61-3.81,6.81-3.54,6.32c-1.2,2.1-2.29,4.23-3.69,6.33a26,26,0,0,1-5,5.59,19.15,19.15,0,0,1-3.15,2.14,13.29,13.29,0,0,1-1.78.81,5.38,5.38,0,0,1-.52.16l-.45.11-.9.21a33.61,33.61,0,0,1-7.41,1,6,6,0,0,1-2.15-.37,2.82,2.82,0,0,1-.63-.37,1.92,1.92,0,0,1-.55-.72,2.1,2.1,0,0,1,0-1.62,5.77,5.77,0,0,1,1.22-1.79,15.77,15.77,0,0,1,1.4-1.3c1-.81,1.94-1.52,2.94-2.22a30.28,30.28,0,0,1,3.13-2,8.28,8.28,0,0,1,1.75-.73,1.9,1.9,0,0,1,1.07,0,.87.87,0,0,1,.49.4,1.19,1.19,0,0,1,.13.54,4.69,4.69,0,0,1-.47,1.82A14.11,14.11,0,0,1,395.67,199.18Z" transform="translate(-128.88 -121.35)"/><path class="cls-3" d="M455.44,207.26a20,20,0,0,1,1.63-4.78,19.31,19.31,0,0,1,3.36-3.83,13.49,13.49,0,0,1,4.52-2.67,10.81,10.81,0,0,1,5.35-.2l.85.18-.09.89-.35,3.5-.09.87v.16a1.11,1.11,0,0,1-.19.42c.58.14-1.69.72-1.73-.25-.07-.23,0-.09,0-.15l0-.09v-.41l0-.47a14.23,14.23,0,0,1,.3-1.82,8.53,8.53,0,0,1,1.59-3.52,4.15,4.15,0,0,1,4-1.51l-.66.13a1.35,1.35,0,0,1,1.55.17,2.14,2.14,0,0,1,.52.64,7,7,0,0,1,.43,1.06,7.78,7.78,0,0,1,.05,2c0,.63-.11,1.25-.21,1.86s-.23,1.21-.34,1.82c-.29-1.19-.58-2.38-.92-3.51-.16-.56-.4-1.1-.56-1.58a2.1,2.1,0,0,0-.2-.61c0-.07-.08-.11,0-.06a.52.52,0,0,0,.19.08.58.58,0,0,0,.21,0,.7.7,0,0,0,.33-.11l-.66.13a2.16,2.16,0,0,0-2.14.81,6.65,6.65,0,0,0-1.18,2.69,12.24,12.24,0,0,0-.25,1.56l0,.38v0c0-.06,0,.08,0-.14,0-1-2.31-.39-1.73-.25a1.07,1.07,0,0,0-.18.4v-.16l.08-.83.33-3.34.76,1.06a8.82,8.82,0,0,0-4.28.16,11.53,11.53,0,0,0-3.81,2.27,20.31,20.31,0,0,0-3.07,3.45A38.88,38.88,0,0,0,455.44,207.26Z" transform="translate(-128.88 -121.35)"/><path class="cls-3" d="M497.44,197.64a14.13,14.13,0,0,0-3.56-.12,4.77,4.77,0,0,0-2.91.32,3.79,3.79,0,0,0-1.78,2.19,3.52,3.52,0,0,0-.33,1.37.83.83,0,0,0,.09.39c0,.08.1.13.22.2a2.74,2.74,0,0,0,1.26.17,9.45,9.45,0,0,0,1.61-.24,21.58,21.58,0,0,0,3.27-1.06c.54-.22,1.07-.45,1.58-.71.25-.13.51-.26.72-.39s.17-.27.14,0,.08.2.12.18v-.09l0-.14a2.86,2.86,0,0,0-.45-.64,12.54,12.54,0,0,0-1.32-1.26,8,8,0,0,1,1.9.35,3.57,3.57,0,0,1,1,.46l.25.2.26.3a1.55,1.55,0,0,1,.26,1.05,1.41,1.41,0,0,1-.52.88,3.11,3.11,0,0,1-.54.39c-.3.18-.58.33-.87.47-.57.28-1.14.53-1.72.77a23.53,23.53,0,0,1-3.59,1.15,11.39,11.39,0,0,1-2,.29,4.58,4.58,0,0,1-2.26-.38,2.41,2.41,0,0,1-1.07-1,2.81,2.81,0,0,1-.34-1.34,5.34,5.34,0,0,1,.47-2.12,5.78,5.78,0,0,1,2.72-3.24,7,7,0,0,1,4.13-.54A9.07,9.07,0,0,1,497.44,197.64Z" transform="translate(-128.88 -121.35)"/><path class="cls-3" d="M512.63,184.58l-2.3,6.11a32.12,32.12,0,0,1-1.15,3,27,27,0,0,0-1.17,2.92c-.82,1.91.11,3.17,1.82,2.74a7.59,7.59,0,0,0,2.55-1.26,20.84,20.84,0,0,0,2.37-2l.14-.13.13-.06a1.62,1.62,0,0,1,.94-.12,1.54,1.54,0,0,1,.83.42,2,2,0,0,1,.42.6,4.11,4.11,0,0,1,.17.52,6.13,6.13,0,0,1,.1,1.7A20.75,20.75,0,0,1,517,202l-.34,1.41a4,4,0,0,0-.15,1.08c0,.07,0,.15,0,.16s0,.07,0,0,0,0,0,0,0,0,0,0a2.05,2.05,0,0,0,.85-.16,21.16,21.16,0,0,0,4.61-2.7c1.49-1.08,3-2.24,4.37-3.44l-.34.8a4.53,4.53,0,0,0-.2-1c-.09-.32-.29-.49-.2-.43a0,0,0,0,0,.05,0s0,0,0,0-.18.06-.32.19a5.27,5.27,0,0,0-.8.76c-1.18,1.25-1.54,2.49-.67,3.52a6.83,6.83,0,0,0,4.06,1.93,7.35,7.35,0,0,0,4.93-1.19,7.55,7.55,0,0,1-4.93,2.49,8.23,8.23,0,0,1-3-.23,4.77,4.77,0,0,1-1.44-.62,6.49,6.49,0,0,1-1.21-1.11,3.93,3.93,0,0,1-.85-3.35,6.24,6.24,0,0,1,1.56-2.75,7.08,7.08,0,0,1,1.15-1.08,3.51,3.51,0,0,1,.85-.46,4.64,4.64,0,0,1,.62-.11,2.81,2.81,0,0,1,.71.12,2.68,2.68,0,0,1,.59.36,2.83,2.83,0,0,1,.38.44,3.65,3.65,0,0,1,.41.85,6.39,6.39,0,0,1,.3,1.59l0,.48-.38.32c-1.47,1.25-2.95,2.43-4.51,3.55-.78.56-1.58,1.1-2.41,1.61a14.28,14.28,0,0,1-2.72,1.35,3.65,3.65,0,0,1-1.92.22,1.86,1.86,0,0,1-.66-.28,1.57,1.57,0,0,1-.53-.55,1.75,1.75,0,0,1-.26-.61,2,2,0,0,1-.08-.54,5.78,5.78,0,0,1,.22-1.71l.33-1.34a19,19,0,0,0,.42-2.63,4.41,4.41,0,0,0,0-1.11c0-.07,0-.1,0-.15s0,0,0,0a.53.53,0,0,0,.21.1h.11a.36.36,0,0,0,.14,0l.27-.19a22.79,22.79,0,0,1-2.61,2.18,9.45,9.45,0,0,1-3.25,1.58,4.31,4.31,0,0,1-2.09,0,3.2,3.2,0,0,1-1.86-1.32,4,4,0,0,1-.47-1,3.09,3.09,0,0,1-.15-1.11,7.2,7.2,0,0,1,.4-1.86,24.68,24.68,0,0,1,2.83-6C510.09,188.14,511.33,186.34,512.63,184.58Z" transform="translate(-128.88 -121.35)"/><path class="cls-3" d="M514.88,192.51a13.88,13.88,0,0,1,1.8-1.79l2.22-.75c1.49-.48,3-.9,4.53-1.24a28.52,28.52,0,0,1,4.71-.7,10,10,0,0,1,1.21,0,9.89,9.89,0,0,1,1.23,0c.4.21.79.37,1.16.61a11.29,11.29,0,0,1,1,.8l-1.22.26c-.39.1-.77.22-1.13.33a10.64,10.64,0,0,0-1.07,0,8.54,8.54,0,0,0-1.09,0,26.56,26.56,0,0,0-4.39.65c-1.46.32-2.91.73-4.35,1.19-.72.24-1.44.47-2.14.75C516.56,192.6,515.74,192.6,514.88,192.51Z" transform="translate(-128.88 -121.35)"/><path class="cls-3" d="M556.81,200.33a4.31,4.31,0,0,0,3.57-1,6.5,6.5,0,0,0,1.81-3.17,11.93,11.93,0,0,0,.35-1.8,1.86,1.86,0,0,0-.06-.68s0-.07,0-.08h0a.14.14,0,0,0,.06.09,1.91,1.91,0,0,1-.36.09,4.39,4.39,0,0,0-.72.3,8.16,8.16,0,0,0-1.45,1,12,12,0,0,0-2.37,2.78,4.54,4.54,0,0,0-.82,3,1.49,1.49,0,0,0,.23.56.4.4,0,0,0,.15.16.43.43,0,0,0,.19.11,2.48,2.48,0,0,0,1.37,0,13.19,13.19,0,0,0,3.42-1.34,47.73,47.73,0,0,0,6.49-4.31c1-.8,2.05-1.63,3-2.49.49-.43,1-.87,1.42-1.31.22-.22.44-.45.6-.64a1.65,1.65,0,0,0,.18-.3,3.61,3.61,0,0,0,.2-.38c1.06-2.32,2-4.85,2.9-7.32s1.81-5,2.69-7.49l1.86.72c-2.19,5.2-4.29,10.47-6.19,15.78-.47,1.33-.94,2.66-1.34,4s-1,2.62-1.49,3.94a17.94,17.94,0,0,0-1,4,11.82,11.82,0,0,0,.22,2l.18,1c0,.17.07.35.11.52a2.08,2.08,0,0,0,.08.25s0,.09.06.09a.23.23,0,0,0,0-.12.21.21,0,0,1,0,.14c-.07,0-.09-.05-.11-.08a2.14,2.14,0,0,1-.13-.24c-.08-.16-.14-.33-.21-.5l-.37-1a9.7,9.7,0,0,1-.6-2.12,18.69,18.69,0,0,1,.39-4.37c.26-1.42.55-2.83.92-4.22l1.4-4c1.92-5.37,4-10.64,6.24-15.89l1.86.72q-1.32,3.77-2.7,7.52c-.94,2.51-1.83,5-3,7.5a5.18,5.18,0,0,1-.26.5,3.31,3.31,0,0,1-.35.55,10.28,10.28,0,0,1-.76.82c-.5.49-1,.95-1.51,1.4-1,.9-2.06,1.75-3.13,2.57a49.61,49.61,0,0,1-6.78,4.5,15,15,0,0,1-4,1.54,4.33,4.33,0,0,1-2.55-.16,2.25,2.25,0,0,1-.66-.4,2.18,2.18,0,0,1-.52-.57,3.45,3.45,0,0,1-.54-1.26,4.94,4.94,0,0,1,.14-2.46,9,9,0,0,1,.92-2,14,14,0,0,1,2.78-3.26,11.79,11.79,0,0,1,1.79-1.28,5.58,5.58,0,0,1,1.1-.5,2.56,2.56,0,0,1,1.6,0,2.46,2.46,0,0,1,.48.27,2.75,2.75,0,0,1,.38.4,4,4,0,0,1,.21.44,2.57,2.57,0,0,1,.09.4,3.68,3.68,0,0,1-.08,1.3,13.18,13.18,0,0,1-.72,2,7.27,7.27,0,0,1-2.68,3.28A4.58,4.58,0,0,1,556.81,200.33Z" transform="translate(-128.88 -121.35)"/><path class="cls-3" d="M580.92,196.14c1.12-.42,2.23-.88,3.31-1.36.54-.24,1.08-.49,1.58-.77a4.41,4.41,0,0,0,.66-.44l.1-.1s0,0,0,0a.4.4,0,0,0,0,.31s0,0,0,0a2.7,2.7,0,0,0-1.33-.1,1.93,1.93,0,0,0-1.13.54,1.38,1.38,0,0,0-.32,1,5.81,5.81,0,0,0,.19,1.36.94.94,0,0,0,.56.7,2.27,2.27,0,0,0,1.2.05,10.31,10.31,0,0,0,3-1.19,21.83,21.83,0,0,0,2.83-1.91c.45-.35.88-.72,1.28-1.11a7.12,7.12,0,0,0,1-1.15l1.31-2,.52,2.35c.3,1.37.64,2.75,1,4.11.19.68.38,1.35.59,2,.1.33.22.66.33,1,.06.16.12.32.18.47l.22.53c0,.07.05.14.07.22a2.8,2.8,0,0,1,0,.33,1.32,1.32,0,0,1-.39,1,1.49,1.49,0,0,1-.47.28,2.12,2.12,0,0,1-.35.08,2.27,2.27,0,0,1-.49,0,5.89,5.89,0,0,1-1.27-.33,21.77,21.77,0,0,1-2.06-.9c-1.32-.65-2.57-1.35-3.83-2.09l-.6-.35.12-.62a2.59,2.59,0,0,1,.22-.69c.07-.17.15-.3.23-.45s.32-.55.49-.8c.34-.51.7-1,1.06-1.44.75-.9,1.51-1.77,2.32-2.59,1.59-1.67,3.27-3.22,5-4.74,3.41-3,6.94-5.88,10.52-8.68l2-1.53-.36,2.45L608.93,188l-.62,4.19c-.24,1.39-.32,2.81-.67,4.18l-1.86-.23a24.66,24.66,0,0,1,.75-3,12.25,12.25,0,0,1,1.27-2.87A3.82,3.82,0,0,1,609,189a1.81,1.81,0,0,1,1.72-.07,5.64,5.64,0,0,1,2.06,2.25,5.44,5.44,0,0,0-2.25-1.75,1.18,1.18,0,0,0-1.11.21,3,3,0,0,0-.73,1.06,11.16,11.16,0,0,0-.74,2.72,23.11,23.11,0,0,0-.27,2.86l-1.86-.23c.05-1.42.38-2.79.55-4.19l.61-4.18,1.23-8.36,1.6.92c-3.55,2.77-7.06,5.61-10.42,8.59-1.67,1.49-3.32,3-4.85,4.63-.77.8-1.51,1.62-2.2,2.47-.33.43-.67.85-1,1.29-.15.22-.28.43-.4.65s-.12.21-.15.3-.09.26-.06.11l-.48-1c1.2.71,2.45,1.4,3.69,2a20,20,0,0,0,1.86.82,4.26,4.26,0,0,0,.8.22h0l-.09,0a.55.55,0,0,0-.24.15.69.69,0,0,0-.23.53.11.11,0,0,0,0,.06v0l-.08-.19-.11-.27c-.08-.18-.14-.35-.2-.53q-.19-.53-.36-1.05c-.23-.7-.43-1.4-.62-2.1-.38-1.4-.72-2.79-1-4.22l1.83.31a8.71,8.71,0,0,1-1.33,1.55c-.46.44-.93.84-1.42,1.23a23.8,23.8,0,0,1-3.09,2.09,12.15,12.15,0,0,1-3.63,1.42,4.19,4.19,0,0,1-2.32-.18,3.06,3.06,0,0,1-1.7-1.91,4.9,4.9,0,0,1-.26-2.16,3.23,3.23,0,0,1,1.17-2.15,3.56,3.56,0,0,1,2.16-.7,3.73,3.73,0,0,1,2.13.56,1.19,1.19,0,0,1,.31.33.84.84,0,0,1,.09.73,1.58,1.58,0,0,1-.28.39l-.25.18a5.38,5.38,0,0,1-.9.42c-.59.21-1.17.38-1.75.53C583.27,195.69,582.09,195.93,580.92,196.14Z" transform="translate(-128.88 -121.35)"/><path class="cls-3" d="M619.46,191.14c.07.59.08,1.1.12,1.6a8,8,0,0,0-.58,1,5.82,5.82,0,0,0-.63,2.1,2.34,2.34,0,0,0,.1.89,1.68,1.68,0,0,0,.08.19l0,.1,0,0,0,0a.07.07,0,0,0,0,0s-.15-.09-.24-.07c-.24,0-.19,0-.13,0a2.88,2.88,0,0,0,.27-.32,10.29,10.29,0,0,0,1.45-.55,4.18,4.18,0,0,1,.18,1.71,3.9,3.9,0,0,1-.57.66,1.87,1.87,0,0,1-1.29.51,1.56,1.56,0,0,1-.83-.3,2.74,2.74,0,0,1-.29-.24l-.16-.22-.15-.23-.09-.2a3.65,3.65,0,0,1-.17-.4,4.32,4.32,0,0,1-.21-1.67,7.73,7.73,0,0,1,.82-2.84c.2-.43.44-.83.67-1.23A5.54,5.54,0,0,1,619.46,191.14Z" transform="translate(-128.88 -121.35)"/><path class="cls-3" d="M625.17,183a4.26,4.26,0,0,1,.79.79c-.08.13-.12.28-.18.41l-.35.79-.36.78-.18.39a9.76,9.76,0,0,1-1.09,0c-.3-.3-.51-.55-.73-.81l.18-.38.35-.77.34-.77a3.06,3.06,0,0,0,.15-.38C624.41,183,624.73,183,625.17,183Z" transform="translate(-128.88 -121.35)"/><path class="cls-3" d="M632.25,190.06a33.48,33.48,0,0,1-.26,4.08c-.22.63-.46,1.25-.7,1.89-.12.32-.25.63-.4,1-.08.17-.14.32-.24.5a3.5,3.5,0,0,1-.37.59,1.28,1.28,0,0,1-.17.2l-.05,0-.15.11-.08,0a1,1,0,0,1-.79,0,1,1,0,0,1-.49-.42,1,1,0,0,1-.14-.43,1,1,0,0,1,0-.26v-.06l0-.11,0-.09a3.3,3.3,0,0,1,.16-.33l.27-.47.54-.86c.37-.57.74-1.12,1.13-1.67.78-1.09,1.59-2.16,2.48-3.19a20.3,20.3,0,0,1,1.43-1.5,7.77,7.77,0,0,1,1.83-1.34,2.59,2.59,0,0,1,1.56-.27,4.39,4.39,0,0,1,.75.25,2.38,2.38,0,0,1,.67.53,2.15,2.15,0,0,1,.43.69,2.63,2.63,0,0,1,.2.69,4.79,4.79,0,0,1,0,1.24,9.75,9.75,0,0,1-.48,2.15c-.11.34-.24.67-.38,1l-.22.5a1.76,1.76,0,0,1-.33.56,2,2,0,0,0-.76,1.11c0,.15,0,.32.27.46a2.34,2.34,0,0,0,.93.21,2.65,2.65,0,0,1-1,.35,1.24,1.24,0,0,1-1.2-.69,2.5,2.5,0,0,1-.2-1.34,3.55,3.55,0,0,1,.36-1.26s.09-.19.15-.29a3.62,3.62,0,0,0,.19-.4c.12-.27.23-.56.32-.84a7.83,7.83,0,0,0,.38-1.69,1.71,1.71,0,0,0-.16-1.12c0-.06-.08,0-.09-.08a.9.9,0,0,1-.18-.06.91.91,0,0,0-.35.11,10.44,10.44,0,0,0-2.62,2.35c-.83,1-1.61,2-2.36,3-.37.53-.74,1.06-1.08,1.6l-.51.81-.22.39-.06.11v0l0-.08v0a1,1,0,0,0,0-.24,1,1,0,0,0-.14-.41,1,1,0,0,0-.48-.41,1,1,0,0,0-.78,0l-.07,0-.13.09,0,0c-.06.06,0,0,0,0a2.49,2.49,0,0,0,.14-.25c.06-.11.12-.26.19-.39.12-.28.24-.57.36-.87.24-.59.44-1.21.65-1.82C630.79,192.35,631.47,191.19,632.25,190.06Z" transform="translate(-128.88 -121.35)"/><path class="cls-3" d="M645.17,195.43a24.06,24.06,0,0,0,2.86-1.77,5.74,5.74,0,0,0,2.38-1.49,3.1,3.1,0,0,0,.34-.49,2.51,2.51,0,0,0,.16-.52,2.27,2.27,0,0,0,0-.53.62.62,0,0,0-.06-.2s0,0-.11,0a1.68,1.68,0,0,0-.52,0,6,6,0,0,0-1.33.49,11.29,11.29,0,0,0-2.52,1.66,2,2,0,0,0-.15.15.24.24,0,0,0,0-.09c.09-.12.06-.53.06-.3a2.22,2.22,0,0,1-.06.46l-.24.84a9.08,9.08,0,0,0-.32,1.48,2.93,2.93,0,0,0,.05,1.24.88.88,0,0,0,.53.63l.19.21.29.16a2.5,2.5,0,0,0,.69.28,11.63,11.63,0,0,0,1.66.36,7.31,7.31,0,0,1-1.66.71,3,3,0,0,1-1,.16l-.53,0-.58-.12a2.87,2.87,0,0,1-1.55-1.83,4.86,4.86,0,0,1-.13-2.07,11,11,0,0,1,.38-1.78l.22-.77c0-.1,0,0,0,0a2.13,2.13,0,0,1,.1-.51,2.28,2.28,0,0,1,.15-.27,3.19,3.19,0,0,1,.41-.46,13.05,13.05,0,0,1,3-2,7.92,7.92,0,0,1,1.8-.65,3.6,3.6,0,0,1,1.14-.08,2.14,2.14,0,0,1,1.37.66,2.38,2.38,0,0,1,.57,1.32,4.17,4.17,0,0,1-.05,1.13,4.44,4.44,0,0,1-.34,1.06,5,5,0,0,1-.6.89,8,8,0,0,1-3.18,2.08A10.83,10.83,0,0,1,645.17,195.43Z" transform="translate(-128.88 -121.35)"/><path class="cls-3" d="M649,186.56a7.55,7.55,0,0,1,0-1.3c.23-.15.44-.33.66-.49l1.3-1,1.3-1,.65-.5a9.06,9.06,0,0,1,1.26.29,9.05,9.05,0,0,1,0,1.29l-.65.5-1.3,1-1.3,1c-.21.17-.44.33-.64.51A7.55,7.55,0,0,1,649,186.56Z" transform="translate(-128.88 -121.35)"/><path class="cls-3" d="M658.13,193.35c1.71-.12,3.38-.22,5-.47a13.81,13.81,0,0,0,2.34-.08,4.06,4.06,0,0,0,1.83-.59.9.9,0,0,0,.28-1.12,2.38,2.38,0,0,0-1.18-1.21,2.85,2.85,0,0,0-3.41.8,4.29,4.29,0,0,0-1.12,1.65A2,2,0,0,0,662,194a3.21,3.21,0,0,0,1.34,1.29,4.24,4.24,0,0,0,.89.21c.37,0,.76.09,1.16.1a47.83,47.83,0,0,0,4.89-.06l5,.62a49.64,49.64,0,0,1-4.93,1.38,49.58,49.58,0,0,1-5.1.06c-.43,0-.88-.06-1.33-.12a5.43,5.43,0,0,1-1.52-.42,5.18,5.18,0,0,1-2.19-2.14,4.07,4.07,0,0,1-.27-3.19,6.23,6.23,0,0,1,1.63-2.47,5.38,5.38,0,0,1,2.59-1.52,4.66,4.66,0,0,1,3.1.35,4.35,4.35,0,0,1,2.18,2.32,3.44,3.44,0,0,1,.2.88,3.09,3.09,0,0,1-.09.94,2.5,2.5,0,0,1-.39.86,2.61,2.61,0,0,1-.63.69,5.77,5.77,0,0,1-2.83,1,17.76,17.76,0,0,1-2.65.12A23.61,23.61,0,0,1,658.13,193.35Z" transform="translate(-128.88 -121.35)"/></g></svg>